<svg xmlns="http://www.w3.org/2000/svg" version="1.1" width="3300" height="2000"><g id="Notes"><style>
    text {
      font-family: monospace;
      text-anchor: middle;
    }
    text.emphasis {
      font-weight:bold;
    }
    text.lanchor {
      text-anchor: start;
    }
  </style><rect height="2200" id="artboard" fill="white" width="3300" x="0" y="0"/><line id="" style="fill:none;stroke:black;stroke-width:0.5;" x1="263" x2="3036" y1="292" y2="292"/><text class="lanchor emphasis" transform="matrix(1 0 0 1 263 322)">Weight/Scale Variations</text><text transform="matrix(1 0 0 1 559.711 322)">Ultralight</text><text transform="matrix(1 0 0 1 856.422 322)">Thin</text><text transform="matrix(1 0 0 1 1153.13 322)">Light</text><text transform="matrix(1 0 0 1 1449.84 322)">Regular</text><text transform="matrix(1 0 0 1 1746.56 322)">Medium</text><text transform="matrix(1 0 0 1 2043.27 322)">Semibold</text><text transform="matrix(1 0 0 1 2339.98 322)">Bold</text><text transform="matrix(1 0 0 1 2636.69 322)">Heavy</text><text transform="matrix(1 0 0 1 2933.4 322)">Black</text><text id="template-version" style="text-anchor: end;" transform="matrix(1 0 0 1 3036 1933)">Template v.1.0</text><text class="lanchor" transform="matrix(1 0 0 1 263 726)">Small</text><text class="lanchor" transform="matrix(1 0 0 1 263 1156)">Medium</text><text class="lanchor" transform="matrix(1 0 0 1 263 1586)">Large</text></g><g id="Guides"><g id="H-reference" style="fill:#27AAE1;stroke:none;" transform="matrix(1 0 0 1 339 696)"><path d="M 54.9316 0 L 57.666 0 L 30.5664 -70.459 L 28.0762 -70.459 L 0.976562 0 L 3.66211 0 L 12.9395 -24.4629 L 45.7031 -24.4629 Z M 29.1992 -67.0898 L 29.4434 -67.0898 L 44.8242 -26.709 L 13.8184 -26.709 Z"/></g><line id="Baseline-S" style="fill:none;stroke:#27AAE1;opacity:1;stroke-width:0.577;" x1="263" x2="3036" y1="696" y2="696"/><line id="Capline-S" style="fill:none;stroke:#27AAE1;opacity:1;stroke-width:0.577;" x1="263" x2="3036" y1="625.541" y2="625.541"/><g id="H-reference" style="fill:#27AAE1;stroke:none;" transform="matrix(1 0 0 1 339 1126)"><path d="M 54.9316 0 L 57.666 0 L 30.5664 -70.459 L 28.0762 -70.459 L 0.976562 0 L 3.66211 0 L 12.9395 -24.4629 L 45.7031 -24.4629 Z M 29.1992 -67.0898 L 29.4434 -67.0898 L 44.8242 -26.709 L 13.8184 -26.709 Z"/></g><line id="Baseline-M" style="fill:none;stroke:#27AAE1;opacity:1;stroke-width:0.577;" x1="263" x2="3036" y1="1126" y2="1126"/><line id="Capline-M" style="fill:none;stroke:#27AAE1;opacity:1;stroke-width:0.577;" x1="263" x2="3036" y1="1055.54" y2="1055.54"/><g id="H-reference" style="fill:#27AAE1;stroke:none;" transform="matrix(1 0 0 1 339 1556)"><path d="M 54.9316 0 L 57.666 0 L 30.5664 -70.459 L 28.0762 -70.459 L 0.976562 0 L 3.66211 0 L 12.9395 -24.4629 L 45.7031 -24.4629 Z M 29.1992 -67.0898 L 29.4434 -67.0898 L 44.8242 -26.709 L 13.8184 -26.709 Z"/></g><line id="Baseline-L" style="fill:none;stroke:#27AAE1;opacity:1;stroke-width:0.577;" x1="263" x2="3036" y1="1556" y2="1556"/><line id="Capline-L" style="fill:none;stroke:#27AAE1;opacity:1;stroke-width:0.577;" x1="263" x2="3036" y1="1485.54" y2="1485.54"/><rect height="119.336" id="left-margin" style="fill:darkred;stroke:none;opacity:0.4;" width="12.4512" x="1394.06" y="1030.79"/><rect height="119.336" id="right-margin" style="fill:darkgreen;stroke:none;opacity:0.4;" width="12.4512" x="1502.5112" y="1030.79"/><rect x="1406.5112" y="1045" width="96" height="96" fill="none" stroke="blue" stroke-dasharray="5"/><rect x="1394.06" y="1030.79" width="120.9024" height="119.336" fill="none" stroke="blue"/></g><g id="Symbols"><g id="Bold-L" transform="matrix(1 0 0 1 2266 1556)"><path d="M60.46875 7.340000000000018  49.665 -3.4637499999999832  81.5925 -35.391249999999985  49.665 -67.31874999999998  60.46875 -78.12249999999999  103.2 -35.391249999999985  60.46875 7.340000000000018 Z"/></g><g id="Semibold-L" transform="matrix(1 0 0 1 1970.27 1556)"><path d="M60.46875 5.657517500000019  51.347482500000005 -3.4637499999999832  83.2749825 -35.391249999999985  51.347482500000005 -67.31874999999998  60.46875 -76.4400175  101.51751750000001 -35.391249999999985  60.46875 5.657517500000019 Z"/></g><g id="Medium-L" transform="matrix(1 0 0 1 1674.31 1556)"><path d="M60.46875 4.395413750000017  52.60958625000001 -3.4637499999999832  84.53708625 -35.391249999999985  52.60958625000001 -67.31874999999998  60.46875 -75.17791374999999  100.25541375 -35.391249999999985  60.46875 4.395413750000017 Z"/></g><g id="Regular-L" transform="matrix(1 0 0 1 1378.56 1556)"><path d="M60.46875 3.470000000000013  53.535000000000004 -3.4637499999999832  85.4625 -35.391249999999985  53.535000000000004 -67.31874999999998  60.46875 -74.25249999999998  99.33 -35.391249999999985  60.46875 3.470000000000013 Z"/></g><g id="Light-L" transform="matrix(1 0 0 1 1082.77 1556)"><path d="M60.53083125 1.23717125000001  55.2716625 -4.0219974999999835  86.57899499999999 -35.329168749999994  55.2716625 -66.69858249999999  60.53083125 -71.95759  97.09717125 -35.329168749999994  60.53083125 1.23717125000001 Z"/></g><g id="Thin-L" transform="matrix(1 0 0 1 787.282 1556)"><path d="M60.59275125 -0.995334999999983  57.0080025 -4.580083749999986  87.6951675 -35.26724874999998  57.0080025 -66.07841499999999  60.59275125 -69.66316374999998  94.864665 -35.26724874999998  60.59275125 -0.995334999999983 Z"/></g><g id="Ultralight-L" transform="matrix(1 0 0 1 491.205 1556)"><path d="M60.63 -2.3349999999999866  58.050000000000004 -4.914999999999985  88.36500000000001 -35.22999999999999  58.050000000000004 -65.70624999999998  60.63 -68.28624999999998  93.525 -35.22999999999999  60.63 -2.3349999999999866 Z"/></g><g id="Bold-M" transform="matrix(1 0 0 1 2281.8 1126)"><path d="M47.0 -1.2299999999999898  36.0 -12.22999999999999  59.0 -35.22999999999999  36.0 -58.22999999999999  47.0 -69.22999999999999  81.0 -35.22999999999999  47.0 -1.2299999999999898 Z"/></g><g id="Semibold-M" transform="matrix(1 0 0 1 1985.97 1126)"><path d="M47.0 -2.9689999999999905  37.739 -12.22999999999999  60.739 -35.22999999999999  37.739 -58.22999999999999  47.0 -67.49099999999999  79.261 -35.22999999999999  47.0 -2.9689999999999905 Z"/></g><g id="Medium-M" transform="matrix(1 0 0 1 1689.91 1126)"><path d="M47.0 -4.273499999999991  39.0435 -12.22999999999999  62.0435 -35.22999999999999  39.0435 -58.22999999999999  47.0 -66.1865  77.9565 -35.22999999999999  47.0 -4.273499999999991 Z"/></g><g id="Regular-M" transform="matrix(1 0 0 1 1394.06 1126)"><path d="M47.0 -5.22999999999999  40.0 -12.22999999999999  63.0 -35.22999999999999  40.0 -58.22999999999999  47.0 -65.22999999999999  77.0 -35.22999999999999  47.0 -5.22999999999999 Z"/></g><g id="Light-M" transform="matrix(1 0 0 1 1098.18 1126)"><path d="M47.0 -6.960874999999991  41.730875 -12.22999999999999  64.730875 -35.22999999999999  41.730875 -58.22999999999999  47.0 -63.49912499999999  75.269125 -35.22999999999999  47.0 -6.960874999999991 Z"/></g><g id="Thin-M" transform="matrix(1 0 0 1 802.565 1126)"><path d="M47.0 -8.69149999999999  43.4615 -12.22999999999999  66.4615 -35.22999999999999  43.4615 -58.22999999999999  47.0 -61.76849999999999  73.5385 -35.22999999999999  47.0 -8.69149999999999 Z"/></g><g id="Ultralight-M" transform="matrix(1 0 0 1 506.415 1126)"><path d="M47.0 -9.72999999999999  44.5 -12.22999999999999  67.5 -35.22999999999999  44.5 -58.22999999999999  47.0 -60.72999999999999  72.5 -35.22999999999999  47.0 -9.72999999999999 Z"/></g><g id="Bold-S" transform="matrix(1 0 0 1 2294.23 696)"><path d="M37.872 -8.403999999999986  29.686125 -16.58987499999999  48.32625 -35.22999999999999  29.686125 -53.87012499999999  37.872 -62.05599999999998  64.69800000000001 -35.22999999999999  37.872 -8.403999999999986 Z"/></g><g id="Semibold-S" transform="matrix(1 0 0 1 1998.1 696)"><path d="M37.872 -9.776070999999988  31.058196 -16.58987499999999  49.698321 -35.22999999999999  31.058196 -53.87012499999999  37.872 -60.68392899999999  63.325929 -35.22999999999999  37.872 -9.776070999999988 Z"/></g><g id="Medium-S" transform="matrix(1 0 0 1 1701.85 696)"><path d="M37.872 -10.805321499999987  32.087446500000006 -16.58987499999999  50.727571499999996 -35.22999999999999  32.087446500000006 -53.87012499999999  37.872 -59.65467849999999  62.296678500000006 -35.22999999999999  37.872 -10.805321499999987 Z"/></g><g id="Regular-S" transform="matrix(1 0 0 1 1405.73 696)"><path d="M37.872 -11.559999999999988  32.842125 -16.58987499999999  51.48225 -35.22999999999999  32.842125 -53.87012499999999  37.872 -58.89999999999999  61.542 -35.22999999999999  37.872 -11.559999999999988 Z"/></g><g id="Light-S" transform="matrix(1 0 0 1 1109.75 696)"><path d="M37.872 -12.925660374999989  34.207785375 -16.58987499999999  52.847910375 -35.22999999999999  34.207785375 -53.87012499999999  37.872 -57.53433962499999  60.176339625000004 -35.22999999999999  37.872 -12.925660374999989 Z"/></g><g id="Thin-S" transform="matrix(1 0 0 1 814.015 696)"><path d="M37.872 -14.291123499999987  35.573248500000005 -16.58987499999999  54.2133735 -35.22999999999999  35.573248500000005 -53.87012499999999  37.872 -56.16887649999998  58.8108765 -35.22999999999999  37.872 -14.291123499999987 Z"/></g><g id="Ultralight-S" transform="matrix(1 0 0 1 517.792 696)"><path d="M37.872 -15.110499999999988  36.392625 -16.58987499999999  55.03275 -35.22999999999999  36.392625 -53.87012499999999  37.872 -55.34949999999999  57.9915 -35.22999999999999  37.872 -15.110499999999988 Z"/></g></g></svg>