<svg xmlns="http://www.w3.org/2000/svg" version="1.1" width="3300" height="2000"><g id="Notes"><style>
    text {
      font-family: monospace;
      text-anchor: middle;
    }
    text.emphasis {
      font-weight:bold;
    }
    text.lanchor {
      text-anchor: start;
    }
  </style><rect height="2200" id="artboard" fill="white" width="3300" x="0" y="0"/><line id="" style="fill:none;stroke:black;stroke-width:0.5;" x1="263" x2="3036" y1="292" y2="292"/><text class="lanchor emphasis" transform="matrix(1 0 0 1 263 322)">Weight/Scale Variations</text><text transform="matrix(1 0 0 1 559.711 322)">Ultralight</text><text transform="matrix(1 0 0 1 856.422 322)">Thin</text><text transform="matrix(1 0 0 1 1153.13 322)">Light</text><text transform="matrix(1 0 0 1 1449.84 322)">Regular</text><text transform="matrix(1 0 0 1 1746.56 322)">Medium</text><text transform="matrix(1 0 0 1 2043.27 322)">Semibold</text><text transform="matrix(1 0 0 1 2339.98 322)">Bold</text><text transform="matrix(1 0 0 1 2636.69 322)">Heavy</text><text transform="matrix(1 0 0 1 2933.4 322)">Black</text><text id="template-version" style="text-anchor: end;" transform="matrix(1 0 0 1 3036 1933)">Template v.1.0</text><text class="lanchor" transform="matrix(1 0 0 1 263 726)">Small</text><text class="lanchor" transform="matrix(1 0 0 1 263 1156)">Medium</text><text class="lanchor" transform="matrix(1 0 0 1 263 1586)">Large</text></g><g id="Guides"><g id="H-reference" style="fill:#27AAE1;stroke:none;" transform="matrix(1 0 0 1 339 696)"><path d="M 54.9316 0 L 57.666 0 L 30.5664 -70.459 L 28.0762 -70.459 L 0.976562 0 L 3.66211 0 L 12.9395 -24.4629 L 45.7031 -24.4629 Z M 29.1992 -67.0898 L 29.4434 -67.0898 L 44.8242 -26.709 L 13.8184 -26.709 Z"/></g><line id="Baseline-S" style="fill:none;stroke:#27AAE1;opacity:1;stroke-width:0.577;" x1="263" x2="3036" y1="696" y2="696"/><line id="Capline-S" style="fill:none;stroke:#27AAE1;opacity:1;stroke-width:0.577;" x1="263" x2="3036" y1="625.541" y2="625.541"/><g id="H-reference" style="fill:#27AAE1;stroke:none;" transform="matrix(1 0 0 1 339 1126)"><path d="M 54.9316 0 L 57.666 0 L 30.5664 -70.459 L 28.0762 -70.459 L 0.976562 0 L 3.66211 0 L 12.9395 -24.4629 L 45.7031 -24.4629 Z M 29.1992 -67.0898 L 29.4434 -67.0898 L 44.8242 -26.709 L 13.8184 -26.709 Z"/></g><line id="Baseline-M" style="fill:none;stroke:#27AAE1;opacity:1;stroke-width:0.577;" x1="263" x2="3036" y1="1126" y2="1126"/><line id="Capline-M" style="fill:none;stroke:#27AAE1;opacity:1;stroke-width:0.577;" x1="263" x2="3036" y1="1055.54" y2="1055.54"/><g id="H-reference" style="fill:#27AAE1;stroke:none;" transform="matrix(1 0 0 1 339 1556)"><path d="M 54.9316 0 L 57.666 0 L 30.5664 -70.459 L 28.0762 -70.459 L 0.976562 0 L 3.66211 0 L 12.9395 -24.4629 L 45.7031 -24.4629 Z M 29.1992 -67.0898 L 29.4434 -67.0898 L 44.8242 -26.709 L 13.8184 -26.709 Z"/></g><line id="Baseline-L" style="fill:none;stroke:#27AAE1;opacity:1;stroke-width:0.577;" x1="263" x2="3036" y1="1556" y2="1556"/><line id="Capline-L" style="fill:none;stroke:#27AAE1;opacity:1;stroke-width:0.577;" x1="263" x2="3036" y1="1485.54" y2="1485.54"/><rect height="119.336" id="left-margin" style="fill:darkred;stroke:none;opacity:0.4;" width="12.4512" x="1394.06" y="1030.79"/><rect height="119.336" id="right-margin" style="fill:darkgreen;stroke:none;opacity:0.4;" width="12.4512" x="1502.5112" y="1030.79"/><rect x="1406.5112" y="1045" width="96" height="96" fill="none" stroke="blue" stroke-dasharray="5"/><rect x="1394.06" y="1030.79" width="120.9024" height="119.336" fill="none" stroke="blue"/></g><g id="Symbols"><g id="Bold-L" transform="matrix(1 0 0 1 2266 1556)"><path d="M40.151250000000005 12.661250000000017  29.50875 2.0187500000000114  66.75750000000001 -35.22999999999999  29.50875 -72.47874999999999  40.151250000000005 -83.12124999999999  77.4 -45.87249999999999  114.64875 -83.12124999999999  125.29125 -72.47874999999999  88.0425 -35.22999999999999  125.29125 2.0187500000000114  114.64875 12.661250000000017  77.4 -24.58749999999999  40.151250000000005 12.661250000000017 Z"/></g><g id="Semibold-L" transform="matrix(1 0 0 1 1970.27 1556)"><path d="M40.151250000000005 10.978767500000014  31.1912325 2.0187500000000114  68.4399825 -35.22999999999999  31.1912325 -72.47874999999999  40.151250000000005 -81.4387675  77.4 -44.190017499999996  114.64875 -81.4387675  123.60876750000001 -72.47874999999999  86.36001750000001 -35.22999999999999  123.60876750000001 2.0187500000000114  114.64875 10.978767500000014  77.4 -26.269982499999983  40.151250000000005 10.978767500000014 Z"/></g><g id="Medium-L" transform="matrix(1 0 0 1 1674.31 1556)"><path d="M40.151250000000005 9.716663750000016  32.45333625 2.0187500000000114  69.70208625000001 -35.22999999999999  32.45333625 -72.47874999999999  40.151250000000005 -80.17666374999999  77.4 -42.92791374999999  114.64875 -80.17666374999999  122.34666375 -72.47874999999999  85.09791375 -35.22999999999999  122.34666375 2.0187500000000114  114.64875 9.716663750000016  77.4 -27.532086249999992  40.151250000000005 9.716663750000016 Z"/></g><g id="Regular-L" transform="matrix(1 0 0 1 1378.56 1556)"><path d="M40.151250000000005 8.791250000000012  33.378750000000004 2.0187500000000114  70.6275 -35.22999999999999  33.378750000000004 -72.47874999999999  40.151250000000005 -79.25124999999998  77.4 -42.00249999999998  114.64875 -79.25124999999998  121.42125 -72.47874999999999  84.1725 -35.22999999999999  121.42125 2.0187500000000114  114.64875 8.791250000000012  77.4 -28.457499999999982  40.151250000000005 8.791250000000012 Z"/></g><g id="Light-L" transform="matrix(1 0 0 1 1082.77 1556)"><path d="M40.46133375 6.868505000000013  35.301495 1.7086662500000145  72.24016125 -35.22999999999999  35.301495 -72.16866624999999  40.46133375 -77.32850499999999  77.4 -40.389838749999996  114.33866625 -77.32850499999999  119.49850500000001 -72.16866624999999  82.55983875000001 -35.22999999999999  119.49850500000001 1.7086662500000145  114.33866625 6.868505000000013  77.4 -30.070161249999984  40.46133375 6.868505000000013 Z"/></g><g id="Thin-L" transform="matrix(1 0 0 1 787.282 1556)"><path d="M40.7714175 4.946082500000017  37.2239175 1.3985825000000176  73.8525 -35.22999999999999  37.2239175 -71.85858249999998  40.7714175 -75.40608249999998  77.4 -38.77749999999999  114.0285825 -75.40608249999998  117.5760825 -71.85858249999998  80.9475 -35.22999999999999  117.5760825 1.3985825000000176  114.0285825 4.946082500000017  77.4 -31.68249999999999  40.7714175 4.946082500000017 Z"/></g><g id="Ultralight-L" transform="matrix(1 0 0 1 491.205 1556)"><path d="M40.9575 3.792500000000018  38.3775 1.2125000000000128  74.82000000000001 -35.22999999999999  38.3775 -71.67249999999999  40.9575 -74.25249999999998  77.4 -37.80999999999999  113.8425 -74.25249999999998  116.4225 -71.67249999999999  79.98 -35.22999999999999  116.4225 1.2125000000000128  113.8425 3.792500000000018  77.4 -32.64999999999999  40.9575 3.792500000000018 Z"/></g><g id="Bold-M" transform="matrix(1 0 0 1 2281.8 1126)"><path d="M32.0 3.7700000000000102  21.0 -7.22999999999999  49.0 -35.22999999999999  21.0 -63.22999999999999  32.0 -74.22999999999999  60.0 -46.22999999999999  88.0 -74.22999999999999  99.0 -63.22999999999999  71.0 -35.22999999999999  99.0 -7.22999999999999  88.0 3.7700000000000102  60.0 -24.22999999999999  32.0 3.7700000000000102 Z"/></g><g id="Semibold-M" transform="matrix(1 0 0 1 1985.97 1126)"><path d="M32.0 2.0310000000000095  22.739 -7.22999999999999  50.739 -35.22999999999999  22.739 -63.22999999999999  32.0 -72.49099999999999  60.0 -44.490999999999985  88.0 -72.49099999999999  97.261 -63.22999999999999  69.261 -35.22999999999999  97.261 -7.22999999999999  88.0 2.0310000000000095  60.0 -25.968999999999987  32.0 2.0310000000000095 Z"/></g><g id="Medium-M" transform="matrix(1 0 0 1 1689.91 1126)"><path d="M32.0 0.7265000000000086  24.0435 -7.22999999999999  52.0435 -35.22999999999999  24.0435 -63.22999999999999  32.0 -71.1865  60.0 -43.186499999999995  88.0 -71.1865  95.9565 -63.22999999999999  67.9565 -35.22999999999999  95.9565 -7.22999999999999  88.0 0.7265000000000086  60.0 -27.27349999999999  32.0 0.7265000000000086 Z"/></g><g id="Regular-M" transform="matrix(1 0 0 1 1394.06 1126)"><path d="M32.0 -0.22999999999998977  25.0 -7.22999999999999  53.0 -35.22999999999999  25.0 -63.22999999999999  32.0 -70.22999999999999  60.0 -42.22999999999999  88.0 -70.22999999999999  95.0 -63.22999999999999  67.0 -35.22999999999999  95.0 -7.22999999999999  88.0 -0.22999999999998977  60.0 -28.22999999999999  32.0 -0.22999999999998977 Z"/></g><g id="Light-M" transform="matrix(1 0 0 1 1098.18 1126)"><path d="M32.0 -1.9608749999999908  26.730875 -7.22999999999999  54.730875 -35.22999999999999  26.730875 -63.22999999999999  32.0 -68.49912499999999  60.0 -40.49912499999999  88.0 -68.49912499999999  93.269125 -63.22999999999999  65.269125 -35.22999999999999  93.269125 -7.22999999999999  88.0 -1.9608749999999908  60.0 -29.960874999999987  32.0 -1.9608749999999908 Z"/></g><g id="Thin-M" transform="matrix(1 0 0 1 802.565 1126)"><path d="M32.0 -3.6914999999999907  28.4615 -7.22999999999999  56.4615 -35.22999999999999  28.4615 -63.22999999999999  32.0 -66.76849999999999  60.0 -38.76849999999999  88.0 -66.76849999999999  91.5385 -63.22999999999999  63.5385 -35.22999999999999  91.5385 -7.22999999999999  88.0 -3.6914999999999907  60.0 -31.69149999999999  32.0 -3.6914999999999907 Z"/></g><g id="Ultralight-M" transform="matrix(1 0 0 1 506.415 1126)"><path d="M32.0 -4.72999999999999  29.5 -7.22999999999999  57.5 -35.22999999999999  29.5 -63.22999999999999  32.0 -65.72999999999999  60.0 -37.72999999999999  88.0 -65.72999999999999  90.5 -63.22999999999999  62.5 -35.22999999999999  90.5 -7.22999999999999  88.0 -4.72999999999999  60.0 -32.72999999999999  32.0 -4.72999999999999 Z"/></g><g id="Bold-S" transform="matrix(1 0 0 1 2294.23 696)"><path d="M28.699875000000002 -8.403999999999986  20.514 -16.58987499999999  39.154125 -35.22999999999999  20.514 -53.87012499999999  28.699875000000002 -62.05599999999998  47.34 -43.415874999999986  65.980125 -62.05599999999998  74.166 -53.87012499999999  55.525875 -35.22999999999999  74.166 -16.58987499999999  65.980125 -8.403999999999986  47.34 -27.044124999999987  28.699875000000002 -8.403999999999986 Z"/></g><g id="Semibold-S" transform="matrix(1 0 0 1 1998.1 696)"><path d="M28.699875000000002 -9.776070999999988  21.886071 -16.58987499999999  40.526196 -35.22999999999999  21.886071 -53.87012499999999  28.699875000000002 -60.68392899999999  47.34 -42.04380399999999  65.980125 -60.68392899999999  72.793929 -53.87012499999999  54.153804 -35.22999999999999  72.793929 -16.58987499999999  65.980125 -9.776070999999988  47.34 -28.416195999999985  28.699875000000002 -9.776070999999988 Z"/></g><g id="Medium-S" transform="matrix(1 0 0 1 1701.85 696)"><path d="M28.699875000000002 -10.805321499999987  22.9153215 -16.58987499999999  41.5554465 -35.22999999999999  22.9153215 -53.87012499999999  28.699875000000002 -59.65467849999999  47.34 -41.01455349999999  65.980125 -59.65467849999999  71.7646785 -53.87012499999999  53.124553500000005 -35.22999999999999  71.7646785 -16.58987499999999  65.980125 -10.805321499999987  47.34 -29.44544649999999  28.699875000000002 -10.805321499999987 Z"/></g><g id="Regular-S" transform="matrix(1 0 0 1 1405.73 696)"><path d="M28.699875000000002 -11.559999999999988  23.67 -16.58987499999999  42.310125 -35.22999999999999  23.67 -53.87012499999999  28.699875000000002 -58.89999999999999  47.34 -40.25987499999999  65.980125 -58.89999999999999  71.01 -53.87012499999999  52.369875 -35.22999999999999  71.01 -16.58987499999999  65.980125 -11.559999999999988  47.34 -30.200124999999986  28.699875000000002 -11.559999999999988 Z"/></g><g id="Light-S" transform="matrix(1 0 0 1 1109.75 696)"><path d="M28.699875000000002 -12.925660374999989  25.035660375000003 -16.58987499999999  43.675785375 -35.22999999999999  25.035660375000003 -53.87012499999999  28.699875000000002 -57.53433962499999  47.34 -38.89421462499999  65.980125 -57.53433962499999  69.644339625 -53.87012499999999  51.004214625 -35.22999999999999  69.644339625 -16.58987499999999  65.980125 -12.925660374999989  47.34 -31.565785374999983  28.699875000000002 -12.925660374999989 Z"/></g><g id="Thin-S" transform="matrix(1 0 0 1 814.015 696)"><path d="M28.699875000000002 -14.291123499999987  26.4011235 -16.58987499999999  45.0412485 -35.22999999999999  26.4011235 -53.87012499999999  28.699875000000002 -56.16887649999998  47.34 -37.528751499999984  65.980125 -56.16887649999998  68.2788765 -53.87012499999999  49.6387515 -35.22999999999999  68.2788765 -16.58987499999999  65.980125 -14.291123499999987  47.34 -32.93124849999999  28.699875000000002 -14.291123499999987 Z"/></g><g id="Ultralight-S" transform="matrix(1 0 0 1 517.792 696)"><path d="M28.699875000000002 -15.110499999999988  27.2205 -16.58987499999999  45.860625 -35.22999999999999  27.2205 -53.87012499999999  28.699875000000002 -55.34949999999999  47.34 -36.70937499999999  65.980125 -55.34949999999999  67.4595 -53.87012499999999  48.819375 -35.22999999999999  67.4595 -16.58987499999999  65.980125 -15.110499999999988  47.34 -33.750624999999985  28.699875000000002 -15.110499999999988 Z"/></g></g></svg>