<svg xmlns="http://www.w3.org/2000/svg" version="1.1" width="3300" height="2000"><g id="Notes"><style>
    text {
      font-family: monospace;
      text-anchor: middle;
    }
    text.emphasis {
      font-weight:bold;
    }
    text.lanchor {
      text-anchor: start;
    }
  </style><rect height="2200" id="artboard" fill="white" width="3300" x="0" y="0"/><line id="" style="fill:none;stroke:black;stroke-width:0.5;" x1="263" x2="3036" y1="292" y2="292"/><text class="lanchor emphasis" transform="matrix(1 0 0 1 263 322)">Weight/Scale Variations</text><text transform="matrix(1 0 0 1 559.711 322)">Ultralight</text><text transform="matrix(1 0 0 1 856.422 322)">Thin</text><text transform="matrix(1 0 0 1 1153.13 322)">Light</text><text transform="matrix(1 0 0 1 1449.84 322)">Regular</text><text transform="matrix(1 0 0 1 1746.56 322)">Medium</text><text transform="matrix(1 0 0 1 2043.27 322)">Semibold</text><text transform="matrix(1 0 0 1 2339.98 322)">Bold</text><text transform="matrix(1 0 0 1 2636.69 322)">Heavy</text><text transform="matrix(1 0 0 1 2933.4 322)">Black</text><text id="template-version" style="text-anchor: end;" transform="matrix(1 0 0 1 3036 1933)">Template v.1.0</text><text class="lanchor" transform="matrix(1 0 0 1 263 726)">Small</text><text class="lanchor" transform="matrix(1 0 0 1 263 1156)">Medium</text><text class="lanchor" transform="matrix(1 0 0 1 263 1586)">Large</text></g><g id="Guides"><g id="H-reference" style="fill:#27AAE1;stroke:none;" transform="matrix(1 0 0 1 339 696)"><path d="M 54.9316 0 L 57.666 0 L 30.5664 -70.459 L 28.0762 -70.459 L 0.976562 0 L 3.66211 0 L 12.9395 -24.4629 L 45.7031 -24.4629 Z M 29.1992 -67.0898 L 29.4434 -67.0898 L 44.8242 -26.709 L 13.8184 -26.709 Z"/></g><line id="Baseline-S" style="fill:none;stroke:#27AAE1;opacity:1;stroke-width:0.577;" x1="263" x2="3036" y1="696" y2="696"/><line id="Capline-S" style="fill:none;stroke:#27AAE1;opacity:1;stroke-width:0.577;" x1="263" x2="3036" y1="625.541" y2="625.541"/><g id="H-reference" style="fill:#27AAE1;stroke:none;" transform="matrix(1 0 0 1 339 1126)"><path d="M 54.9316 0 L 57.666 0 L 30.5664 -70.459 L 28.0762 -70.459 L 0.976562 0 L 3.66211 0 L 12.9395 -24.4629 L 45.7031 -24.4629 Z M 29.1992 -67.0898 L 29.4434 -67.0898 L 44.8242 -26.709 L 13.8184 -26.709 Z"/></g><line id="Baseline-M" style="fill:none;stroke:#27AAE1;opacity:1;stroke-width:0.577;" x1="263" x2="3036" y1="1126" y2="1126"/><line id="Capline-M" style="fill:none;stroke:#27AAE1;opacity:1;stroke-width:0.577;" x1="263" x2="3036" y1="1055.54" y2="1055.54"/><g id="H-reference" style="fill:#27AAE1;stroke:none;" transform="matrix(1 0 0 1 339 1556)"><path d="M 54.9316 0 L 57.666 0 L 30.5664 -70.459 L 28.0762 -70.459 L 0.976562 0 L 3.66211 0 L 12.9395 -24.4629 L 45.7031 -24.4629 Z M 29.1992 -67.0898 L 29.4434 -67.0898 L 44.8242 -26.709 L 13.8184 -26.709 Z"/></g><line id="Baseline-L" style="fill:none;stroke:#27AAE1;opacity:1;stroke-width:0.577;" x1="263" x2="3036" y1="1556" y2="1556"/><line id="Capline-L" style="fill:none;stroke:#27AAE1;opacity:1;stroke-width:0.577;" x1="263" x2="3036" y1="1485.54" y2="1485.54"/><rect height="119.336" id="left-margin" style="fill:darkred;stroke:none;opacity:0.4;" width="12.4512" x="1394.06" y="1030.79"/><rect height="119.336" id="right-margin" style="fill:darkgreen;stroke:none;opacity:0.4;" width="12.4512" x="1502.5112" y="1030.79"/><rect x="1406.5112" y="1045" width="96" height="96" fill="none" stroke="blue" stroke-dasharray="5"/><rect x="1394.06" y="1030.79" width="120.9024" height="119.336" fill="none" stroke="blue"/></g><g id="Symbols"><g id="Bold-L" transform="matrix(1 0 0 1 2266 1556)"><path d="M16.60875 7.985000000000014 V-7.172499999999985 H60.791250000000005 V7.985000000000014 H16.60875 Z M16.60875 -27.65124999999999 V-42.80874999999999 H99.49125000000001 V-27.65124999999999 H16.60875 Z M16.60875 -63.28749999999998 V-78.60624999999999 H138.19125 V-63.28749999999998 H16.60875 Z"/></g><g id="Semibold-L" transform="matrix(1 0 0 1 1970.27 1556)"><path d="M17.80054875 6.022103750000014 V-6.751798749999992 H59.59945125 V6.022103750000014 H17.80054875 Z M17.80054875 -28.843048749999994 V-41.616951249999985 H98.29945125 V-28.843048749999994 H17.80054875 Z M17.80054875 -63.70820124999999 V-76.57320999999999 H136.99945125000002 V-63.70820124999999 H17.80054875 Z"/></g><g id="Medium-L" transform="matrix(1 0 0 1 1674.31 1556)"><path d="M18.69451875 4.549730000000018 V-6.436393749999986 H58.70548125 V4.549730000000018 H18.69451875 Z M18.69451875 -29.73701874999999 V-40.72298124999999 H97.40548125000001 V-29.73701874999999 H18.69451875 Z M18.69451875 -64.02360625 V-75.04826874999998 H136.10548125000003 V-64.02360625 H18.69451875 Z"/></g><g id="Regular-L" transform="matrix(1 0 0 1 1378.56 1556)"><path d="M19.35 3.470000000000013 V-6.204999999999984 H58.050000000000004 V3.470000000000013 H19.35 Z M19.35 -30.392499999999984 V-40.06749999999998 H96.75 V-30.392499999999984 H19.35 Z M19.35 -64.25499999999998 V-73.92999999999999 H135.45000000000002 V-64.25499999999998 H19.35 Z"/></g><g id="Light-L" transform="matrix(1 0 0 1 1082.77 1556)"><path d="M20.96266125 1.857338750000011 V-5.460669999999986 H56.43733875 V1.857338750000011 H20.96266125 Z M20.96266125 -32.81141124999998 V-40.12958124999999 H95.13733875000001 V-32.81141124999998 H20.96266125 Z M20.96266125 -67.48016124999998 V-74.79833124999999 H133.83733875000001 V-67.48016124999998 H20.96266125 Z"/></g><g id="Thin-L" transform="matrix(1 0 0 1 787.282 1556)"><path d="M22.575 0.24500000000001165 V-4.716501249999986 H54.825 V0.24500000000001165 H22.575 Z M22.575 -35.22999999999999 V-40.19150124999999 H93.525 V-35.22999999999999 H22.575 Z M22.575 -70.70499999999998 V-75.66650124999998 H132.225 V-70.70499999999998 H22.575 Z"/></g><g id="Ultralight-L" transform="matrix(1 0 0 1 491.205 1556)"><path d="M23.5425 -0.7224999999999824 V-4.269999999999982 H53.8575 V-0.7224999999999824 H23.5425 Z M23.5425 -36.68124999999999 V-40.22874999999999 H92.5575 V-36.68124999999999 H23.5425 Z M23.5425 -72.63999999999999 V-76.18749999999999 H131.2575 V-72.63999999999999 H23.5425 Z"/></g><g id="Bold-M" transform="matrix(1 0 0 1 2281.8 1126)"><path d="M12.125 -0.47999999999998977 V-16.22999999999999 H47.875 V-0.47999999999998977 H12.125 Z M12.125 -27.35499999999999 V-43.10499999999999 H77.875 V-27.35499999999999 H12.125 Z M12.125 -54.22999999999999 V-69.97999999999999 H107.875 V-54.22999999999999 H12.125 Z"/></g><g id="Semibold-M" transform="matrix(1 0 0 1 1985.97 1126)"><path d="M13.374875 -2.545124999999988 V-15.795249999999989 H46.625125 V-2.545124999999988 H13.374875 Z M13.374875 -28.604874999999993 V-41.85512499999999 H76.625125 V-28.604874999999993 H13.374875 Z M13.374875 -54.664749999999984 V-67.914875 H106.625125 V-54.664749999999984 H13.374875 Z"/></g><g id="Medium-M" transform="matrix(1 0 0 1 1689.91 1126)"><path d="M14.3125 -4.094124999999991 V-15.469124999999991 H45.6875 V-4.094124999999991 H14.3125 Z M14.3125 -29.54249999999999 V-40.91749999999999 H75.6875 V-29.54249999999999 H14.3125 Z M14.3125 -54.99087499999999 V-66.36587499999999 H105.6875 V-54.99087499999999 H14.3125 Z"/></g><g id="Regular-M" transform="matrix(1 0 0 1 1394.06 1126)"><path d="M15.0 -5.22999999999999 V-15.22999999999999 H45.0 V-5.22999999999999 H15.0 Z M15.0 -30.22999999999999 V-40.22999999999999 H75.0 V-30.22999999999999 H15.0 Z M15.0 -55.22999999999999 V-65.22999999999999 H105.0 V-55.22999999999999 H15.0 Z"/></g><g id="Light-M" transform="matrix(1 0 0 1 1098.18 1126)"><path d="M16.250125 -6.48012499999999 V-13.979874999999993 H43.749875 V-6.48012499999999 H16.250125 Z M16.250125 -32.44174999999999 V-39.94149999999999 H73.749875 V-32.44174999999999 H16.250125 Z M16.250125 -58.403249999999986 V-65.90312499999999 H103.749875 V-58.403249999999986 H16.250125 Z"/></g><g id="Thin-M" transform="matrix(1 0 0 1 802.565 1126)"><path d="M17.5 -7.72999999999999 V-12.72999999999999 H42.5 V-7.72999999999999 H17.5 Z M17.5 -34.65299999999999 V-39.65312499999999 H72.5 V-34.65299999999999 H17.5 Z M17.5 -61.57612499999999 V-66.57612499999999 H102.5 V-61.57612499999999 H17.5 Z"/></g><g id="Ultralight-M" transform="matrix(1 0 0 1 506.415 1126)"><path d="M18.25 -8.47999999999999 V-11.97999999999999 H41.75 V-8.47999999999999 H18.25 Z M18.25 -35.97999999999999 V-39.47999999999999 H71.75 V-35.97999999999999 H18.25 Z M18.25 -63.47999999999999 V-66.97999999999999 H101.75 V-63.47999999999999 H18.25 Z"/></g><g id="Bold-S" transform="matrix(1 0 0 1 2294.23 696)"><path d="M11.933625000000001 -10.179249999999989 V-21.816999999999986 H40.140375 V-10.179249999999989 H11.933625000000001 Z M11.933625000000001 -29.41112499999999 V-41.04887499999999 H59.076375000000006 V-29.41112499999999 H11.933625000000001 Z M11.933625000000001 -48.64299999999999 V-60.28074999999998 H82.746375 V-48.64299999999999 H11.933625000000001 Z"/></g><g id="Semibold-S" transform="matrix(1 0 0 1 1998.1 696)"><path d="M12.919776375 -11.808633624999985 V-21.473982249999985 H39.154223625 V-11.808633624999985 H12.919776375 Z M12.919776375 -30.39727637499999 V-40.06272362499999 H58.090223625 V-30.39727637499999 H12.919776375 Z M12.919776375 -48.98601774999999 V-58.651366374999995 H81.760223625 V-48.98601774999999 H12.919776375 Z"/></g><g id="Medium-S" transform="matrix(1 0 0 1 1701.85 696)"><path d="M13.6595625 -13.030794624999988 V-21.216669624999987 H38.4144375 V-13.030794624999988 H13.6595625 Z M13.6595625 -31.137062499999985 V-39.32293749999999 H57.350437500000005 V-31.137062499999985 H13.6595625 Z M13.6595625 -49.243330374999985 V-57.429205374999995 H81.0204375 V-49.243330374999985 H13.6595625 Z"/></g><g id="Regular-S" transform="matrix(1 0 0 1 1405.73 696)"><path d="M14.202 -13.926999999999989 V-21.027999999999984 H37.872 V-13.926999999999989 H14.202 Z M14.202 -31.67949999999999 V-38.78049999999999 H56.808 V-31.67949999999999 H14.202 Z M14.202 -49.43199999999999 V-56.53299999999999 H80.47800000000001 V-49.43199999999999 H14.202 Z"/></g><g id="Light-S" transform="matrix(1 0 0 1 1109.75 696)"><path d="M15.188348625000001 -14.913348624999987 V-20.041651374999994 H36.885651375 V-14.913348624999987 H15.188348625000001 Z M15.188348625000001 -33.42457074999999 V-38.55287349999999 H55.821651375 V-33.42457074999999 H15.188348625000001 Z M15.188348625000001 -51.93569424999998 V-57.06409562499999 H79.491651375 V-51.93569424999998 H15.188348625000001 Z"/></g><g id="Thin-S" transform="matrix(1 0 0 1 814.015 696)"><path d="M16.174500000000002 -15.899499999999989 V-19.055499999999988 H35.8995 V-15.899499999999989 H16.174500000000002 Z M16.174500000000002 -35.16924699999999 V-38.32534562499999 H54.8355 V-35.16924699999999 H16.174500000000002 Z M16.174500000000002 -54.43909262499999 V-57.59509262499999 H78.5055 V-54.43909262499999 H16.174500000000002 Z"/></g><g id="Ultralight-S" transform="matrix(1 0 0 1 517.792 696)"><path d="M16.76625 -16.491249999999987 V-18.463749999999987 H35.30775 V-16.491249999999987 H16.76625 Z M16.76625 -36.21624999999999 V-38.18874999999999 H54.243750000000006 V-36.21624999999999 H16.76625 Z M16.76625 -55.94124999999998 V-57.91374999999999 H77.91375000000001 V-55.94124999999998 H16.76625 Z"/></g></g></svg>