<svg xmlns="http://www.w3.org/2000/svg" version="1.1" width="3300" height="2000"><g id="Notes"><style>
    text {
      font-family: monospace;
      text-anchor: middle;
    }
    text.emphasis {
      font-weight:bold;
    }
    text.lanchor {
      text-anchor: start;
    }
  </style><rect height="2200" id="artboard" fill="white" width="3300" x="0" y="0"/><line id="" style="fill:none;stroke:black;stroke-width:0.5;" x1="263" x2="3036" y1="292" y2="292"/><text class="lanchor emphasis" transform="matrix(1 0 0 1 263 322)">Weight/Scale Variations</text><text transform="matrix(1 0 0 1 559.711 322)">Ultralight</text><text transform="matrix(1 0 0 1 856.422 322)">Thin</text><text transform="matrix(1 0 0 1 1153.13 322)">Light</text><text transform="matrix(1 0 0 1 1449.84 322)">Regular</text><text transform="matrix(1 0 0 1 1746.56 322)">Medium</text><text transform="matrix(1 0 0 1 2043.27 322)">Semibold</text><text transform="matrix(1 0 0 1 2339.98 322)">Bold</text><text transform="matrix(1 0 0 1 2636.69 322)">Heavy</text><text transform="matrix(1 0 0 1 2933.4 322)">Black</text><text id="template-version" style="text-anchor: end;" transform="matrix(1 0 0 1 3036 1933)">Template v.1.0</text><text class="lanchor" transform="matrix(1 0 0 1 263 726)">Small</text><text class="lanchor" transform="matrix(1 0 0 1 263 1156)">Medium</text><text class="lanchor" transform="matrix(1 0 0 1 263 1586)">Large</text></g><g id="Guides"><g id="H-reference" style="fill:#27AAE1;stroke:none;" transform="matrix(1 0 0 1 339 696)"><path d="M 54.9316 0 L 57.666 0 L 30.5664 -70.459 L 28.0762 -70.459 L 0.976562 0 L 3.66211 0 L 12.9395 -24.4629 L 45.7031 -24.4629 Z M 29.1992 -67.0898 L 29.4434 -67.0898 L 44.8242 -26.709 L 13.8184 -26.709 Z"/></g><line id="Baseline-S" style="fill:none;stroke:#27AAE1;opacity:1;stroke-width:0.577;" x1="263" x2="3036" y1="696" y2="696"/><line id="Capline-S" style="fill:none;stroke:#27AAE1;opacity:1;stroke-width:0.577;" x1="263" x2="3036" y1="625.541" y2="625.541"/><g id="H-reference" style="fill:#27AAE1;stroke:none;" transform="matrix(1 0 0 1 339 1126)"><path d="M 54.9316 0 L 57.666 0 L 30.5664 -70.459 L 28.0762 -70.459 L 0.976562 0 L 3.66211 0 L 12.9395 -24.4629 L 45.7031 -24.4629 Z M 29.1992 -67.0898 L 29.4434 -67.0898 L 44.8242 -26.709 L 13.8184 -26.709 Z"/></g><line id="Baseline-M" style="fill:none;stroke:#27AAE1;opacity:1;stroke-width:0.577;" x1="263" x2="3036" y1="1126" y2="1126"/><line id="Capline-M" style="fill:none;stroke:#27AAE1;opacity:1;stroke-width:0.577;" x1="263" x2="3036" y1="1055.54" y2="1055.54"/><g id="H-reference" style="fill:#27AAE1;stroke:none;" transform="matrix(1 0 0 1 339 1556)"><path d="M 54.9316 0 L 57.666 0 L 30.5664 -70.459 L 28.0762 -70.459 L 0.976562 0 L 3.66211 0 L 12.9395 -24.4629 L 45.7031 -24.4629 Z M 29.1992 -67.0898 L 29.4434 -67.0898 L 44.8242 -26.709 L 13.8184 -26.709 Z"/></g><line id="Baseline-L" style="fill:none;stroke:#27AAE1;opacity:1;stroke-width:0.577;" x1="263" x2="3036" y1="1556" y2="1556"/><line id="Capline-L" style="fill:none;stroke:#27AAE1;opacity:1;stroke-width:0.577;" x1="263" x2="3036" y1="1485.54" y2="1485.54"/><rect height="119.336" id="left-margin" style="fill:darkred;stroke:none;opacity:0.4;" width="12.4512" x="1394.06" y="1030.79"/><rect height="119.336" id="right-margin" style="fill:darkgreen;stroke:none;opacity:0.4;" width="12.4512" x="1502.5112" y="1030.79"/><rect x="1406.5112" y="1045" width="96" height="96" fill="none" stroke="blue" stroke-dasharray="5"/><rect x="1394.06" y="1030.79" width="120.9024" height="119.336" fill="none" stroke="blue"/></g><g id="Symbols"><g id="Bold-L" transform="matrix(1 0 0 1 2266 1556)"><path d="M77.4 18.143750000000015  24.02625 -35.22999999999999  77.4 -88.60374999999999  88.20375 -77.96124999999999  53.2125 -42.80874999999999 H130.77375 V-27.65124999999999 H53.2125 L88.20375 7.340000000000018 L77.4 18.143750000000015 Z"/></g><g id="Semibold-L" transform="matrix(1 0 0 1 1970.27 1556)"><path d="M77.4 17.372652500000015  24.7973475 -35.22999999999999  77.4 -87.8326525  86.45112375 -78.87263499999999  49.2867075 -41.616951249999985 H130.0026525 V-28.843048749999994 H49.2867075 L86.45112375 8.321528750000013 L77.4 17.372652500000015 Z"/></g><g id="Medium-L" transform="matrix(1 0 0 1 1674.31 1556)"><path d="M77.4 16.794087500000014  25.375912500000002 -35.22999999999999  77.4 -87.2540875  85.13645249999999 -79.55617374999999  46.34196 -40.72298124999999 H129.4240875 V-29.73701874999999 H46.34196 L85.13645249999999 9.057635000000012 L77.4 16.794087500000014 Z"/></g><g id="Regular-L" transform="matrix(1 0 0 1 1378.56 1556)"><path d="M77.4 16.370000000000015  25.8 -35.22999999999999  77.4 -86.82999999999998  84.1725 -80.05749999999999  44.182500000000005 -40.06749999999998 H129.0 V-30.392499999999984 H44.182500000000005 L84.1725 9.597500000000018 L77.4 16.370000000000015 Z"/></g><g id="Light-L" transform="matrix(1 0 0 1 1082.77 1556)"><path d="M77.4 13.889007500000016  28.2809925 -35.22999999999999  77.4 -84.3490075  82.55983875000001 -79.18916875  42.19767375 -38.889084999999994 H126.51900750000001 V-31.570914999999985 H42.19767375 L82.55983875000001 8.729168750000014 L77.4 13.889007500000016 Z"/></g><g id="Thin-L" transform="matrix(1 0 0 1 787.282 1556)"><path d="M77.4 11.408498750000014  30.761501250000002 -35.22999999999999  77.4 -81.86849874999999  80.9475 -78.32099874999999  40.21333125 -37.710831249999984 H124.03849875 V-32.74916874999998 H40.21333125 L80.9475 7.8609987500000145 L77.4 11.408498750000014 Z"/></g><g id="Ultralight-L" transform="matrix(1 0 0 1 491.205 1556)"><path d="M77.4 9.920000000000016  32.25 -35.22999999999999  77.4 -80.37999999999998  79.98 -77.79999999999998  39.0225 -37.00374999999998 H122.55 V-33.45624999999998 H39.0225 L79.98 7.340000000000018 L77.4 9.920000000000016 Z"/></g><g id="Bold-M" transform="matrix(1 0 0 1 2281.8 1126)"><path d="M60.0 6.64500000000001  18.125 -35.22999999999999  60.0 -77.10499999999999  71.25 -65.97999999999999  48.375 -43.10499999999999 H101.875 V-27.35499999999999 H48.375 L71.25 -4.47999999999999 L60.0 6.64500000000001 Z"/></g><g id="Semibold-M" transform="matrix(1 0 0 1 1985.97 1126)"><path d="M60.0 5.829875000000012  18.940125 -35.22999999999999  60.0 -76.289875  69.456625 -66.95824999999999  44.3535 -41.85512499999999 H101.059875 V-28.604874999999993 H44.3535 L69.456625 -3.5017499999999906 L60.0 5.829875000000012 Z"/></g><g id="Medium-M" transform="matrix(1 0 0 1 1689.91 1126)"><path d="M60.0 5.218375000000009  19.551625 -35.22999999999999  60.0 -75.67837499999999  68.111375 -67.692  41.337 -40.91749999999999 H100.448375 V-29.54249999999999 H41.337 L68.111375 -2.76799999999999 L60.0 5.218375000000009 Z"/></g><g id="Regular-M" transform="matrix(1 0 0 1 1394.06 1126)"><path d="M60.0 4.77000000000001  20.0 -35.22999999999999  60.0 -75.22999999999999  67.125 -68.22999999999999  39.125 -40.22999999999999 H100.0 V-30.22999999999999 H39.125 L67.125 -2.2299999999999898 L60.0 4.77000000000001 Z"/></g><g id="Light-M" transform="matrix(1 0 0 1 1098.18 1126)"><path d="M60.0 2.8467500000000108  21.92325 -35.22999999999999  60.0 -73.30675  65.346 -68.03762499999999  36.28825 -38.97987499999999 H98.07675 V-31.480124999999987 H36.28825 L65.346 -2.422374999999988 L60.0 2.8467500000000108 Z"/></g><g id="Thin-M" transform="matrix(1 0 0 1 802.565 1126)"><path d="M60.0 0.9238750000000095  23.846125 -35.22999999999999  60.0 -71.38387499999999  63.567375 -67.84537499999999  33.452 -37.72999999999999 H96.153875 V-32.72999999999999 H33.452 L63.567375 -2.6146249999999895 L60.0 0.9238750000000095 Z"/></g><g id="Ultralight-M" transform="matrix(1 0 0 1 506.415 1126)"><path d="M60.0 -0.22999999999998977  25.0 -35.22999999999999  60.0 -70.22999999999999  62.5 -67.72999999999999  31.75 -36.97999999999999 H95.0 V-33.47999999999999 H31.75 L62.5 -2.7299999999999898 L60.0 -0.22999999999998977 Z"/></g><g id="Bold-S" transform="matrix(1 0 0 1 2294.23 696)"><path d="M47.34 -5.346624999999989  17.456625000000003 -35.22999999999999  47.34 -65.11337499999999  55.624500000000005 -56.828875  39.844500000000004 -41.04887499999999 H77.223375 V-29.41112499999999 H39.844500000000004 L55.624500000000005 -13.631124999999987 L47.34 -5.346624999999989 Z"/></g><g id="Semibold-S" transform="matrix(1 0 0 1 1998.1 696)"><path d="M47.34 -5.989758624999986  18.099758625 -35.22999999999999  47.34 -64.470241375  54.209527125 -57.600714249999996  36.6715365 -40.06272362499999 H76.58024137500001 V-30.39727637499999 H36.6715365 L54.209527125 -12.859285749999987 L47.34 -5.989758624999986 Z"/></g><g id="Medium-S" transform="matrix(1 0 0 1 1701.85 696)"><path d="M47.34 -6.472232124999987  18.582232125 -35.22999999999999  47.34 -63.98776787499999  53.148124875 -58.179643  34.291518 -39.32293749999999 H76.097767875 V-31.137062499999985 H34.291518 L53.148124875 -12.280356999999988 L47.34 -6.472232124999987 Z"/></g><g id="Regular-S" transform="matrix(1 0 0 1 1405.73 696)"><path d="M47.34 -6.825999999999986  18.936 -35.22999999999999  47.34 -63.633999999999986  52.369875 -58.604124999999996  32.54625 -38.78049999999999 H75.744 V-31.67949999999999 H32.54625 L52.369875 -11.855874999999987 L47.34 -6.825999999999986 Z"/></g><g id="Light-S" transform="matrix(1 0 0 1 1109.75 696)"><path d="M47.34 -8.343444249999987  20.45344425 -35.22999999999999  47.34 -62.11655574999999  50.966244 -58.45234112499999  30.30805425 -37.79415137499999 H74.22655575 V-32.66584862499999 H30.30805425 L50.966244 -12.007658874999986 L47.34 -8.343444249999987 Z"/></g><g id="Thin-S" transform="matrix(1 0 0 1 814.015 696)"><path d="M47.34 -9.860592624999988  21.970592625000002 -35.22999999999999  47.34 -60.599407374999984  49.562908875 -58.30065587499999  28.070253 -36.807999999999986 H72.709407375 V-33.65199999999999 H28.070253 L49.562908875 -12.159344124999986 L47.34 -9.860592624999988 Z"/></g><g id="Ultralight-S" transform="matrix(1 0 0 1 517.792 696)"><path d="M47.34 -10.770999999999987  22.881 -35.22999999999999  47.34 -59.68899999999999  48.72075 -58.20962499999999  26.727375000000002 -36.21624999999999 H71.799 V-34.24374999999999 H26.727375000000002 L48.72075 -12.250374999999988 L47.34 -10.770999999999987 Z"/></g></g></svg>